<?xml version="1.0" encoding="utf-8"?>
<svg version="1.1" id="Layer_1" xmlns="http://www.w3.org/2000/svg" xmlns:xlink="http://www.w3.org/1999/xlink" x="0px" y="0px"
	 viewBox="0 0 100 100" style="enable-background:new 0 0 100 100;" xml:space="preserve">
<style type="text/css">
	.st0{fill:#FFFFFF;}
</style>
<path class="st0" d="M24.8,19.5l5.4,5.4c3.4,3.4,7.9,5.2,12.7,5.2l45.7,0c0.7,0,1.4,0.6,1.4,1.4v47.6c0,0.7-0.6,1.4-1.4,1.4H11.4
	c-0.7,0-1.4-0.6-1.4-1.4V20.9c0-0.7,0.6-1.4,1.4-1.4H24.8 M26.1,12.5H6.9c-2.1,0-3.9,1.7-3.9,3.9v67.3c0,2.1,1.7,3.9,3.9,3.9h86.3
	c2.1,0,3.9-1.7,3.9-3.9V27c0-2.1-1.7-3.9-3.9-3.9c0,0,0,0,0,0l-50.2,0c-2.9,0-5.7-1.2-7.8-3.2l-6.3-6.3
	C28.1,12.9,27.1,12.5,26.1,12.5L26.1,12.5z"/>
</svg>
