<?xml version="1.0" encoding="utf-8"?>
<!-- Generator: Adobe Illustrator 21.1.0, SVG Export Plug-In . SVG Version: 6.00 Build 0)  -->
<svg version="1.1" id="Layer_1" xmlns="http://www.w3.org/2000/svg" xmlns:xlink="http://www.w3.org/1999/xlink" x="0px" y="0px"
	 viewBox="0 0 93.9 74" style="enable-background:new 0 0 93.9 74;" xml:space="preserve">
<style type="text/css">
	.st0{fill:#F9D757;}
	.st1{fill:url(#SVGID_1_);}
</style>
<path class="st0" d="M5.4,29.2h83.2c2.2,0,4.1,1,5.4,2.6V14.8c0-2.1-1.7-4-3.9-4H39.8c-2.9,0-5.7-1.2-7.8-3.3l-6.3-6.4
	C25.1,0.4,24.1,0,23.1,0H3.9C1.8,0,0,1.7,0,4v27.7C1.3,30.2,3.2,29.2,5.4,29.2z"/>
<linearGradient id="SVGID_1_" gradientUnits="userSpaceOnUse" x1="46.9665" y1="73.9777" x2="46.9665" y2="24.9616">
	<stop  offset="0" style="stop-color:#FFCF16"/>
	<stop  offset="1" style="stop-color:#FFF199"/>
</linearGradient>
<path class="st1" d="M5.4,25c-3,0-5.4,2.3-5.4,5.1v40.2c0,2,1.7,3.7,3.9,3.7H90c2.1,0,3.9-1.6,3.9-3.7V30.1c0-2.8-2.4-5.1-5.4-5.1
	H5.4z"/>
</svg>
