<?xml version="1.0" encoding="utf-8"?>
<!-- Generator: Adobe Illustrator 21.1.0, SVG Export Plug-In . SVG Version: 6.00 Build 0)  -->
<svg version="1.1" id="Layer_1" xmlns="http://www.w3.org/2000/svg" xmlns:xlink="http://www.w3.org/1999/xlink" x="0px" y="0px"
	 viewBox="0 0 17 17" style="enable-background:new 0 0 17 17;" xml:space="preserve">
<style type="text/css">
	.st0{fill:#ffffff;}
</style>
<path class="st0" d="M15.1,16.8l1.7-1.7l-3.6-3.6c1.9-2.8,1.7-6.6-0.8-9.1c-2.8-2.8-7.2-2.8-10,0c-2.8,2.8-2.8,7.2,0,10
	c2.5,2.5,6.3,2.7,9.1,0.8L15.1,16.8z M3.7,11.1c-2-2-2-5.4,0-7.4c2-2,5.4-2,7.4,0c2,2,2,5.4,0,7.4C9,13.1,5.7,13.1,3.7,11.1z"/>
</svg>
